<svg width="52" height="60" viewBox="0 0 52 60" fill="none" xmlns="http://www.w3.org/2000/svg">
<path d="M0.354248 3.57811V56.2113C0.354601 56.3255 0.388659 56.4371 0.452152 56.532C0.515646 56.6269 0.605748 56.701 0.71116 56.7449C0.816572 56.7888 0.932602 56.8006 1.0447 56.7788C1.1568 56.757 1.25997 56.7027 1.34129 56.6225L28.7467 29.8961L1.34129 3.16696C1.25997 3.08678 1.1568 3.0324 1.0447 3.01064C0.932602 2.98887 0.816572 3.00068 0.71116 3.04459C0.605748 3.0885 0.515646 3.16255 0.452152 3.25746C0.388659 3.35238 0.354601 3.46392 0.354248 3.57811Z" fill="#3BCCFF"/>
<path d="M35.2377 19.018L0.874792 0.0861125L0.853364 0.074059C0.261407 -0.247365 -0.301085 0.553517 0.18373 1.01958L27.1204 26.7764L35.2377 19.018Z" fill="#48FF48"/>
<path d="M0.186276 58.9804C-0.301218 59.4465 0.261275 60.2474 0.85591 59.926L0.877337 59.9139L35.2376 40.982L27.1203 33.2209L0.186276 58.9804Z" fill="#FF3333"/>
<path d="M49.1097 26.6519L39.5139 21.3672L30.4912 30.0001L39.5139 38.629L49.1097 33.3483C51.7199 31.9059 51.7199 28.0943 49.1097 26.6519Z" fill="#FFD400"/>
</svg>
